<svg xmlns="http://www.w3.org/2000/svg" viewBox="0 0 444.14 595.08"><defs><style>.cls-1{fill:#d2cecd;}.cls-2{fill:#f3eae9;}.cls-3{fill:#f7f0f0;}.cls-4{fill:#fff2ea;}.cls-5{fill:#f26768;}.cls-6{fill:#f9b7b3;}.cls-7{fill:#231f20;}</style></defs><g id="Layer_1" data-name="Layer 1"><path class="cls-1" d="M378.69,543.7c14.32-1.81,19.88-17.23,10-27.77l-10-10.63-10-10.64c-9.86-10.53-27.76-8.27-32.21,4.07l-4.49,12.47-4.5,12.46c-4.45,12.35,7.88,25.51,22.2,23.7l14.46-1.83Z"/><path class="cls-1" d="M55.79,543.7c-14.31-1.81-19.88-17.23-10-27.77l10-10.63,10-10.64c9.87-10.53,27.76-8.27,32.21,4.07l4.5,12.47,4.49,12.46c4.46,12.35-7.88,25.51-22.19,23.7l-14.46-1.83Z"/><path class="cls-1" d="M359.42,413.65l.27-21c1.08-61.47-55.61-121.45-110.27-122.13l-57-.7c-54.66-.68-107.95,63.81-109,125.29l-.29,16.81C49.58,418,24.29,443.18,24.29,473.06v7.77c0,34.4,33.5,62.54,74.45,62.54l81.44-1,77.64,1c2.87,0,5.71-.07,8.52-.31l70,.32c40.95,0,74.45-28.14,74.45-62.54v-7.77C410.75,445.44,389.13,421.87,359.42,413.65Z"/><path class="cls-2" d="M246,287.62H199.28c-44.78,0-92.23-54.41-92.23-105.76h0a128.21,128.21,0,0,1,11.55-53.19C138,86.26,155.16,47.06,192.72,47.06H248.1c37,0,57,42.13,74.5,81.79a128,128,0,0,1,10.93,51.8v1.21C333.53,233.21,290.81,287.62,246,287.62Z"/><rect class="cls-2" x="103.16" y="229.88" width="237.61" height="312.99" rx="109.76"/><path class="cls-2" d="M233.41,348.22,319.28,273c17.07-15,6.49-43.09-16.21-43.09H131.32C108.62,229.88,98,258,115.11,273L201,348.22A24.6,24.6,0,0,0,233.41,348.22Z"/><path class="cls-3" d="M337,198.82c-7.62-15.61-28.69-17.66-44.2-14.06-33.29,1.42-38.37-26.3-88.26-20.74-25.43-1.52-41.57,23.31-66.17,21.23-48.22-9.62-56.21,33.95-35,68.27,9.89,33.22,39.06,28,78.85,38.83,30,8,61.65,3.9,90.32-7.25,5.8-.23,52-13.5,54-23.94C333.64,240.6,346.16,221.27,337,198.82Z"/><path class="cls-1" d="M225.69,543.37h-9c-37.12,0-86.86-1.63-86.86-38.75l19.37-53.37a67.69,67.69,0,0,1,67.49-67.49h9a67.7,67.7,0,0,1,67.5,67.49l40.95,57.09C334.14,545.46,262.81,543.37,225.69,543.37Z"/><rect class="cls-2" x="103.21" y="391.4" width="67.47" height="167.01" rx="12.97"/><rect class="cls-2" x="273.47" y="391.4" width="67.7" height="167.01" rx="12.99"/><path class="cls-2" d="M121.6,570.22c-14.85,2.71-25.42-11-19-24.66L109,531.75l6.45-13.81c6.39-13.67,24.95-17.06,33.4-6.1l8.55,11.07L166,534c8.46,11,.47,28-14.37,30.76l-15,2.74Z"/><path class="cls-2" d="M323.27,571.46c15.44,2.87,26.38-11.31,19.69-25.53l-6.75-14.35-6.76-14.36c-6.69-14.21-26-17.79-34.75-6.45l-8.84,11.46L277,533.69c-8.76,11.35-.39,29.11,15.05,32l15.6,2.89Z"/><path class="cls-4" d="M215.57,174.56a41.05,41.05,0,0,0-1.49,10.86,1,1,0,0,0,2,0,38.77,38.77,0,0,1,1.42-10.33,1,1,0,0,0-1.93-.53Z"/><g id="Layer_2" data-name="Layer 2"><path d="M178.7,151.37c0,3.24-4.79,3.69-8,3.69a5.86,5.86,0,0,1,0-11.71C173.91,143.35,178.7,148.14,178.7,151.37Z"/><path d="M267.61,149.2a5.85,5.85,0,0,1-5.85,5.86c-3.23,0-7.7,0-7.7-3.25s4.47-8.46,7.7-8.46A5.85,5.85,0,0,1,267.61,149.2Z"/><path d="M228.43,186a3.92,3.92,0,0,1,3.22,1.49,12.41,12.41,0,0,0,1.76-5.82c0-6.16-7.71-6.82-16.88-6.82s-16.3.66-16.3,6.82a12.2,12.2,0,0,0,1.68,5.68,4,4,0,0,1,2.81-1.06c4.3,0,5.24,5.16,2.87,7.48a15,15,0,0,0,18.36.06C223.09,191.7,223.92,186,228.43,186Z"/><ellipse class="cls-5" cx="133.01" cy="205.54" rx="18.36" ry="16.1"/><ellipse class="cls-5" cx="300.58" cy="205.54" rx="18.36" ry="16.1"/><circle class="cls-2" cx="144.57" cy="60.29" r="35.35"/><circle class="cls-2" cx="291.25" cy="60.29" r="35.35"/><circle class="cls-6" cx="144.57" cy="60.29" r="18.41"/><circle class="cls-6" cx="291.25" cy="60.29" r="18.41"/><path class="cls-7" d="M250.78,217.87c-.62,5.12-7.17,3.42-10,1.5-3.56-2.41-6.28-5.88-9.73-8.44-7.14-5.29-15.18-6.05-22.25-.22-3.26,2.68-5.94,6.57-9.8,8.4-5.57,2.64-7.76-2.94-12-5.33-6.41-3.67-14.8.45-12.83,8.38,1.25,5,8.82,2.4,7.58-2.57.28,1.1,3.73,3.24,4.58,4a17.78,17.78,0,0,0,4.15,3.12,12.84,12.84,0,0,0,10.61.15c7.81-3.1,13.68-16.32,23-11,7.13,4.06,11.44,12.31,20.26,13.37,6.44.77,13.43-3.12,14.25-9.91C259.26,214.27,251.4,212.74,250.78,217.87Z"/><path class="cls-7" d="M183.76,137.89c-2.1-4-6.22-6-10.54-6.2-2.16-.12-3.85,2.3-3.71,4.27.16,2.37,2.1,3.59,4.27,3.71-.57,0,.65.2.54.13a5.59,5.59,0,0,1,.61.26c.07,0,.48.28.64.36s.57.51.69.61l.31.4a8.82,8.82,0,0,1,.52.88c1,1.91,3.88,2.24,5.55,1.12A4.09,4.09,0,0,0,183.76,137.89Z"/><path class="cls-7" d="M245.81,137.89c2.1-4,6.21-6,10.54-6.2,2.16-.12,3.85,2.3,3.71,4.27-.17,2.37-2.1,3.59-4.27,3.71.57,0-.65.2-.55.13-.2.07-.41.17-.61.26l-.63.36c-.13.12-.57.51-.7.61l-.31.4c-.19.29-.35.58-.52.88-1,1.91-3.87,2.24-5.54,1.12A4.08,4.08,0,0,1,245.81,137.89Z"/></g></g></svg>