<svg xmlns="http://www.w3.org/2000/svg" viewBox="0 0 504.87 567.8"><defs><style>.cls-1{fill:#fff2ea;}.cls-2,.cls-5{fill:#faa967;}.cls-3,.cls-8{fill:none;}.cls-4{fill:#c9753c;}.cls-5{stroke:#faa967;stroke-width:0.77px;}.cls-5,.cls-8{stroke-miterlimit:10;}.cls-6{fill:#f2e5dc;}.cls-7{fill:#f26869;}.cls-8{stroke:#000;stroke-width:7px;}.cls-9{fill:#fff;}</style></defs><g id="Layer_1" data-name="Layer 1"><path class="cls-1" d="M465.35,72.52a35.61,35.61,0,0,0-3.88,2.83c-11,9-18.9,21.59-28.88,31.87a41.25,41.25,0,0,1-9.92,8c-4.09,2.17-8.61,3.13-13.07,4.06a5.71,5.71,0,0,1-3.35,0c-2.28-.92-2.59-4.2-2.22-6.8a40.73,40.73,0,0,1,4.89-13.88A53.7,53.7,0,0,1,434,75.68a52.63,52.63,0,0,1,32.66-3.08"/><path class="cls-1" d="M168.19,13.15a34.84,34.84,0,0,1,2.51,4.1c6.7,12.54,9.21,27.17,14.49,40.48a41.72,41.72,0,0,0,6.13,11.16c3,3.57,6.76,6.18,10.52,8.75A5.75,5.75,0,0,0,204.92,79c2.46,0,4-2.89,4.66-5.43a40.86,40.86,0,0,0,.78-14.7A53.77,53.77,0,0,0,196,28.05a52.63,52.63,0,0,0-29-15.32"/><path class="cls-2" d="M255.73,34.47c-10.84-7.53-18.65-18.86-29.62-26.2C206.76-4.69,178.5-2.16,161.77,14a50.48,50.48,0,0,1,27.54,31.13c1.81,6,2.48,12.24,4.37,18.19S199,75.17,204.53,78"/><path class="cls-2" d="M375.76,57.29c12.9-2.82,24.45-10.3,37.39-12.89,22.83-4.58,48,8.56,57.25,29.93a50.46,50.46,0,0,0-37.35,18.23c-3.95,4.83-7,10.37-11,15.14s-9.4,8.89-15.62,9.38"/><path class="cls-3" d="M37.13,367.62l.06.12h0Z"/><path class="cls-4" d="M177.62,474.4c-.54-.29-1.07-.61-1.61-.91a4.85,4.85,0,0,0-1.71-4.32c-28.06-24.73-56.49-49.1-83.88-74.57-26.63-24.76-51.83-51.19-72.25-81.39-3.41-5-10.66.06-8.48,5.11a5.39,5.39,0,0,0,.16,2c15.21,56.23,44,113,94.05,145.74,13.49,8.83,29.25,16.95,45.84,13.68a4.94,4.94,0,0,0,4.08-4.46c6,2.69,12.07,5.27,18.19,7.82a5.24,5.24,0,0,0,1.52.39,2,2,0,0,1,.25.14C179.41,486.74,183.21,477.48,177.62,474.4ZM37.13,367.62l.08.12h0Z"/><path class="cls-4" d="M420.59,526.19c14.32-1.81,19.88-17.24,10-27.77l-10-10.64-10-10.64c-9.87-10.53-27.77-8.27-32.22,4.08L374,493.68l-4.5,12.47c-4.45,12.34,7.88,25.5,22.2,23.69L406.13,528Z"/><path class="cls-4" d="M97.7,526.19c-14.32-1.81-19.88-17.24-10-27.77l10-10.64,10-10.64c9.87-10.53,27.77-8.27,32.22,4.08l4.49,12.46,4.5,12.47c4.45,12.34-7.88,25.5-22.2,23.69L112.16,528Z"/><path class="cls-4" d="M382.57,396.13l.24-21c.91-61.48-47.05-121.46-93.29-122.13l-48.25-.71C195,251.64,150,316.13,149,377.61l-.25,16.82c-28.32,6.09-49.72,31.24-49.72,61.12v7.77c0,34.39,28.34,62.53,63,62.53l68.89-1,65.69,1a63.72,63.72,0,0,0,7.2-.32l59.19.32c34.63,0,63-28.14,63-62.53v-7.77C426,427.92,407.71,404.35,382.57,396.13Z"/><rect class="cls-5" x="145.06" y="212.36" width="237.61" height="312.99" rx="109.76"/><path class="cls-6" d="M263.52,316.51l102.11-49.39c20.17-9.75,17.62-39.25-3.92-45.39L198.88,175.29c-21.54-6.14-39.27,17.58-27.28,36.5l60.71,95.81A24.38,24.38,0,0,0,263.52,316.51Z"/><path class="cls-2" d="M301.85,263.79,256,254.68C212.07,246,176.14,183.34,186.14,133l5.58-28.08c10-50.37,54.14-84.45,98.07-75.72l62.4,12.4C396.12,50.3,423.87,98.65,413.87,149l-5.58,28.08C398.28,227.48,345.77,272.52,301.85,263.79Z"/><path class="cls-1" d="M408.6,199.3c-3.77-17-23.78-23.87-39.7-24-32.71-6.38-31.18-34.51-81-40.74-24.38-7.41-45.87,13-69.3,5.21C174,119.18,156,159.69,168.65,198c1.87,34.62,31.46,36.32,67.62,56.15,27.33,14.76,59,18.17,89.52,14,5.7,1.13,53.7-1,58.12-10.68C395.55,239.13,412.24,223.25,408.6,199.3Z"/><path class="cls-4" d="M267.59,525.85h-9c-37.13,0-86.86-1.63-86.86-38.75l19.36-53.36a67.69,67.69,0,0,1,67.5-67.5h9a67.69,67.69,0,0,1,67.5,67.5l41,57.08C376,527.94,304.72,525.85,267.59,525.85Z"/><rect class="cls-2" x="145.11" y="373.88" width="57.77" height="167.01" rx="12"/><rect class="cls-2" x="325.3" y="373.88" width="57.77" height="167.01" rx="12"/><path class="cls-2" d="M157.23,554.54c-14.18,2.66-24.2-10.33-18-23.37L145.43,518l6.23-13.18c6.17-13,23.9-16.37,31.91-6l8.1,10.49,8.09,10.49c8,10.39.31,26.7-13.88,29.36l-14.32,2.68Z"/><path class="cls-2" d="M371.07,556.1c14.19,2.65,24.21-10.33,18-23.38l-6.23-13.17-6.23-13.18c-6.17-13-23.9-16.37-31.92-6l-8.09,10.49-8.1,10.49c-8,10.39-.3,26.7,13.88,29.35l14.33,2.69Z"/><circle cx="255.73" cy="119.04" r="5.86"/><circle cx="345.07" cy="136.78" r="5.86"/><ellipse cx="294.67" cy="159.84" rx="11.16" ry="16.59" transform="translate(80.48 417.72) rotate(-78.76)"/><ellipse class="cls-7" cx="200.36" cy="161.1" rx="8.46" ry="21.4" transform="translate(3.3 326.22) rotate(-78.76)"/><ellipse class="cls-7" cx="377.59" cy="196.31" rx="8.46" ry="21.4" transform="translate(111.47 528.41) rotate(-78.76)"/><path class="cls-7" d="M275.12,221.21l-4.45-1.5a12,12,0,0,1-7.5-15.16l4-14.61c2.11-6.26,6.39.53,12.65,2.65l4.45,1.5c6.26,2.12,13.13-2.31,11,3.95l-5,15.67A12,12,0,0,1,275.12,221.21Z"/><path class="cls-8" d="M267.18,180.87c4.49,12.55,18.8,18.87,32,14.14"/><path class="cls-9" d="M258.73,114.94c-3.22,0-2.86,5,.35,5S261.94,114.94,258.73,114.94Z"/><path class="cls-9" d="M348.37,132.28c-3.23,0-2.86,5,.35,5S351.57,132.28,348.37,132.28Z"/></g></svg>