<svg xmlns="http://www.w3.org/2000/svg" viewBox="0 0 509.2 554.31"><defs><style>.cls-1,.cls-3{fill:#b7bfc4;}.cls-1{stroke:#b7bfc4;stroke-miterlimit:10;stroke-width:8px;}.cls-2{fill:#f7a2a0;}.cls-4{fill:#9fa6a9;}.cls-5{fill:#dcdbdb;}</style></defs><g id="Layer_1" data-name="Layer 1"><path class="cls-1" d="M413.45,393.89a98,98,0,0,0-45.79,3.28C352.24,402,338,409.28,323.22,415.59c-7.89,3.37-14.32,5.79-22.84,7.54a51.55,51.55,0,0,1-10.32,1.28c-1.73,0-3.46,0-5.19-.13-.75-.06-3.45-.51-3-.38a67.47,67.47,0,0,1-8.31-2.38l-.47-.2c-.46-.24-1.2-.61-1.33-.69a43.51,43.51,0,0,1-4.51-2.72l-1-.69-.47-.47c-1-1.05-2-2.21-3-3.24l0,0c-.33-.52-.65-1-1-1.57s-.56-1.12-.85-1.68l-.19-.34c0-.1-.07-.21-.1-.32-2.29-7.2-9.67-13-18.11-10.85-7.48,1.93-14.23,9.62-11.78,17.31,9.26,29.12,41.55,40.59,71.56,36,31.78-4.84,57.69-27,88.81-30.61-.16,0,2.36-.16,2.76-.17,1.51-.05,3-.05,4.51,0,1.76,0,3.51.15,5.25.32l2.08.23.69.12a80.73,80.73,0,0,1,9.39,2.4c1.42.46,2.81,1,4.2,1.51l.24.09q1.08.49,2.13,1a68.22,68.22,0,0,1,8.21,4.87c.57.39,1.13.79,1.69,1.2a44.61,44.61,0,0,1,3.78,3.62c.56.6,1.12,1.24,1.64,1.9.06.09.12.2.21.35.29.5,1.14,2.15,1.46,2.71a17.48,17.48,0,0,0,.5,2.17c0,.35,0,.8,0,.82,0,.25,0,.45,0,.62l0,0c-.16.36-.78,1.81-1,2.42-.46.63-1.19,1.7-1.34,2l-.11.23c-.42.41-.85.82-1.27,1.21a38,38,0,0,1-3.44,2.75c-.59.33-1.17.67-1.76,1-1.23.65-2.49,1.22-3.76,1.77-.25.1-.4.17-.5.22l-.32.1c-.87.28-1.74.53-2.62.76-2.05.55-4.12,1-6.2,1.4-15.11,2.9-30.24,3.39-44.49,9.7-15.57,6.9-27.67,20.83-28.18,37.45-.55,18,11.9,33.91,30,38.83,7.64,2.07,17-2.06,19.19-9.7a14.3,14.3,0,0,0-9.93-18c-.76-.21-2.45-.85-2.35-.72-.84-.49-1.65-1-2.51-1.49-.36-.33-.72-.66-1.06-1s-.82-.9-1.21-1.37l-.14-.3c-.09-.17-.56-1.07-.81-1.5s-.24-.64-.25-.69c-.14-.61-.44-3.23-.46-2.29a20.25,20.25,0,0,1,.16-3c0,.74.58-1.51.66-2,.1-.22.19-.43.23-.49.35-.55.7-1.1,1.09-1.63.23-.33.48-.64.73-1h0a30.77,30.77,0,0,0,3-2.57l.21-.21c.52-.32,1.05-.62,1.59-.91,1.2-.66,2.44-1.26,3.69-1.82.84-.37,1.7-.72,2.56-1.06l.84-.28,2.77-.76c1.56-.4,3.14-.75,4.72-1.07,15.42-3,31.38-3.14,45.76-10.15,13.74-6.7,24.35-18.45,26.7-33.05C474.77,418.81,439.48,398.16,413.45,393.89Z"/><path class="cls-2" d="M289.38,68l11.13-20.49,2.23-4.12c2.09-2.41,4.22-4.8,6.47-7.06,1.23-.71,2.45-1.42,3.64-2.15l.93-.57.14-.05a6.38,6.38,0,0,1-.45,2.24,62.41,62.41,0,0,1-3.13,6.42,120.21,120.21,0,0,1-15.6,23.91A66.35,66.35,0,0,1,287.86,73a11.19,11.19,0,0,1-4,3.14,45.81,45.81,0,0,1-10.13,5.52c-1.29.49-2.41-1-2.42-2.4a3.63,3.63,0,0,1,1.34-2.86,4.22,4.22,0,0,1,.48-1c1.33-2,2.68-4,4-6.06A7.53,7.53,0,0,0,289.38,68Z"/><path class="cls-3" d="M250.18,21a2.52,2.52,0,0,1,2-2.94l3.55-.43a7.51,7.51,0,0,1,2.49-.5l2.13-.06,24.56-3c9.35-1.13,20.12-2.57,28.05,3.77a16.65,16.65,0,0,1,6.32,10.24,2.3,2.3,0,0,1,.8,1.37,2.55,2.55,0,0,1-2,2.94c-.86.19-1.71.4-2.55.64l-1.2.36-.3.1-.11,0-.14.05-.93.57c-1.19.73-2.41,1.44-3.64,2.15-2.25,2.26-4.38,4.65-6.47,7.06l-2.23,4.12L289.38,68a7.53,7.53,0,0,1-12.31,1.34,8.35,8.35,0,0,1-.74-1L264.15,48.48,252,28.61a7.44,7.44,0,0,1-.78-6.1A2.34,2.34,0,0,1,250.18,21Z"/><path class="cls-2" d="M99.92,69.88,88.8,49.39l-2.24-4.12c-2.08-2.41-4.22-4.8-6.46-7.06-1.23-.71-2.46-1.41-3.64-2.15l-.94-.56-.14,0a6.65,6.65,0,0,0,.45,2.24A65.45,65.45,0,0,0,79,44.1,119.64,119.64,0,0,0,94.56,68a67.35,67.35,0,0,0,6.88,6.85,11.11,11.11,0,0,0,4,3.14,45.33,45.33,0,0,0,10.12,5.52c1.29.5,2.42-1,2.42-2.4a3.61,3.61,0,0,0-1.34-2.85,4.44,4.44,0,0,0-.47-1c-1.34-2-2.68-4-4-6A7.53,7.53,0,0,1,99.92,69.88Z"/><path class="cls-3" d="M139.13,22.86a2.54,2.54,0,0,0-2-2.94l-3.56-.42a7.46,7.46,0,0,0-2.49-.5L129,18.94l-24.56-3c-9.35-1.12-20.11-2.56-28,3.78A16.6,16.6,0,0,0,70.05,30a2.23,2.23,0,0,0-.79,1.37,2.55,2.55,0,0,0,2,2.94c.85.18,1.7.39,2.54.63l1.2.37.31.1.1,0,.14,0,.94.56c1.18.74,2.41,1.44,3.64,2.15,2.24,2.26,4.38,4.65,6.46,7.06l2.24,4.12L99.92,69.88a7.53,7.53,0,0,0,12.31,1.35,7.39,7.39,0,0,0,.74-1l12.19-19.88,12.18-19.88a7.43,7.43,0,0,0,.79-6.09A2.42,2.42,0,0,0,139.13,22.86Z"/><path class="cls-4" d="M312.88,443.5l6-5.13c5.94-5.08,29.81-6,43-1.68l13.29,4.38,13.3,4.38c13.16,4.34,5.74,10.69-13.36,11.44l-19.29.75-19.29.75c-19.1.75-35.55-4.67-29.62-9.75Z"/><path class="cls-4" d="M301.77,350.86l.2-21c.79-61.48-40.8-121.46-80.9-122.13l-41.84-.71c-40.1-.68-79.19,63.81-80,125.29L99,349.16c-24.56,6.09-43.11,31.24-43.11,61.12v7.77c0,34.39,24.58,62.53,54.61,62.53l59.75-1,57,1a48.19,48.19,0,0,0,6.25-.32l51.32.32c30,0,54.61-28.14,54.61-62.53v-7.77C339.42,382.66,323.57,359.08,301.77,350.86Z"/><path class="cls-3" d="M221.73,226.9H175c-44.78,0-92.23-50.63-92.23-98.41V101.85C82.76,54.06,119.4,15,164.19,15h63.62c44.79,0,81.44,39.1,81.44,86.89v26.64C309.25,176.27,266.52,226.9,221.73,226.9Z"/><rect class="cls-3" x="78.87" y="169.16" width="237.61" height="312.99" rx="109.76"/><path class="cls-5" d="M198.09,270.36H193.2c-34.35,0-104.07-46.35-104.07-79h0c0-32.63,28.11-59.32,62.46-59.32h85.77c34.35,0,62.46,26.69,62.46,59.32h0C299.82,224,232.44,270.36,198.09,270.36Z"/><path class="cls-5" d="M268.9,392.41c0-38.15-30.38-69.38-67.5-69.38h-9c-37.12,0-67.49,31.23-67.49,69.38l-19.36,54.86c0,38.16,49.73,39.83,86.85,39.83h9c37.12,0,108.45,2.15,108.45-36Z"/><path class="cls-3" d="M307.36,142.84c-6.69-15.9-26.74-18.77-41.69-15.79-31.86.12-35.67-27.78-83.53-24.18-24.24-2.52-40.59,21.66-64,18.61-45.7-11.5-55,31.73-36,66.85,8.21,33.58,36.26,29.49,73.86,41.89,28.38,9.15,58.75,6.32,86.55-3.7,5.55,0,50.17-11.45,52.5-21.8C302.54,184.45,315.24,165.63,307.36,142.84Z"/><path class="cls-4" d="M98.31,455.54l-6-7.81c-5.94-7.73-29.81-9.15-43-2.55l-13.29,6.66-13.3,6.67C9.59,465.1,17,474.77,36.11,475.9l19.29,1.15,19.29,1.14c19.1,1.14,35.55-7.11,29.61-14.84Z"/><rect class="cls-3" x="78.92" y="330.68" width="57.77" height="167.01" rx="12"/><rect class="cls-3" x="259.11" y="330.68" width="57.77" height="167.01" rx="12"/><path class="cls-3" d="M324,513.66c17.18,2.53,22.2-8.46,9.05-19.79l-13.29-11.45L306.49,471c-13.15-11.33-34.62-14.49-38.64-5.7l-4.06,8.89-4.06,8.89c-4,8.79,12.42,23,29.59,25.49l17.35,2.56Z"/><path class="cls-3" d="M71.78,513.66c-17.17,2.53-22.2-8.46-9.05-19.79L76,482.42,89.31,471c13.15-11.33,34.62-14.49,38.64-5.7l4.07,8.89,4.06,8.89c4,8.79-12.43,23-29.6,25.49l-17.35,2.56Z"/><g id="Layer_2" data-name="Layer 2"><circle cx="152.24" cy="104.53" r="5.86"/><circle cx="231.61" cy="104.53" r="5.86"/><path d="M207.32,143.82c0,3.68-6.51,13.63-14.54,13.63s-14.54-9.95-14.54-13.63,6.84-.72,14.87-.72S207.32,140.13,207.32,143.82Z"/><ellipse class="cls-2" cx="115.29" cy="145.15" rx="21.4" ry="8.46"/><ellipse class="cls-2" cx="266.6" cy="145.15" rx="21.4" ry="8.46"/><path d="M191.38,157.34c-2.54,8.76-9.5,16.63-19.23,21.75-2.46,1.29.11,4.22,2.57,2.93,10.76-5.67,18.42-14.35,21.22-24C196.58,155.79,192,155.13,191.38,157.34Z"/><path d="M196,157.34c2.54,8.76,9.5,16.63,19.23,21.75,2.45,1.29-.12,4.22-2.57,2.93-10.76-5.67-18.42-14.35-21.22-24C190.78,155.79,195.34,155.13,196,157.34Z"/></g><path class="cls-3" d="M452.81,411.51c-5.62-6.24-17.64-4.63-22.57,1.58-5.93,7.48-4.45,15.89,1.58,22.57-2.45-2.72.17,1.42.49,1.36.4,1.35.92,3.26.91,2.6a25.82,25.82,0,0,1,.18,2.63c-.13-1.13-.75,2.29-.52,2.44-.64,1.25-1.6,3-1.33,2.75a37.45,37.45,0,0,1-2.52,3c-.36.39-3.87,3.57-3.17,3.05-1.46,1.21-3,2.38-4.45,3.55-6.57,5.14-9.85,14.84-4.48,22.19,4.79,6.55,15.14,10,22.19,4.48,11.28-8.83,21.87-18.46,25.29-33S462.47,422.22,452.81,411.51Z"/><path class="cls-3" d="M431.36,433.12a1.12,1.12,0,0,0-.43-.06l-.22-.15a1.5,1.5,0,0,0-2,.7,1.53,1.53,0,0,0,.71,2,8.09,8.09,0,0,1,.74.57A15.12,15.12,0,0,1,420,457c-1.87.51-.89,3.34,1,2.84a18.53,18.53,0,0,0,8.35-4.93,1.61,1.61,0,0,0,.71-.19c4.2-2.28,7.84-6.39,8.12-11.34A10.06,10.06,0,0,0,431.36,433.12Z"/></g></svg>